<?xml version="1.0" encoding="UTF-8"?>
<svg id="Layer_1" data-name="Layer 1" xmlns="http://www.w3.org/2000/svg" viewBox="0 0 612 342.75">
  <defs>
    <style>
      .cls-1 {
        fill: #fff;
      }
    </style>
  </defs>
  <path d="m593.18,138.52c-.11-13.33-3.37-26.42-9.49-38.75-6.36-12.71-15.16-22.94-26.38-30.36-10.14-6.67-21.13-10.23-32.66-10.45-9.31-.27-18.11,1.64-26.08,5.51-3.02-6.31-7.08-11.91-11.98-16.35-5.18-4.82-10.69-7.96-16.81-9.65-1.34-.41-2.75-.76-4.17-1.03l-1.53-.42c-1.69-.42-3.45-.88-5.22-1.3-2.22-.58-4.43-1.11-6.7-1.65-5.74-1.37-11.44-2.71-17.34-4.02-3.48-.76-7.28-1.19-11.07-1.23-1.3-.03-2.53.04-3.78.15-4.02-1.68-8.43-2.68-13.1-2.91-1.26-.07-2.6-.2-3.98-.34-.23-.08-.46-.04-.69-.08-2.84-.31-5.7-.61-8.58-.92l-4.78-.54c-3.03-.27-6.09-.61-9.15-.96l-3.22-.38c-2.26-.27-4.52-.49-6.55-.69-1.84-.23-3.68-.42-5.56-.58-2.26-.23-4.52-.41-6.77-.68-.2,0-.34-.04-.54-.04-5.16-.46-9.99-.31-14.52.58-3.98-1.38-8.27-2.11-12.63-2.11l-.62.04-39.82.96c-2.68.04-7.2.15-12.56,1.72-.27.04-.54.15-.76.23-1,.31-1.99.65-3.06,1.11-4.87-1.57-10.11-2.03-15.63-1.41-3.53.38-6.97.88-10.49,1.34-2.22.3-4.47.61-6.93.92l-36.76,4.98c-4.36.65-8.49,1.95-12.29,3.82-15.47-2.07-30.67,5.7-37.91,19.45-2.41-1.92-5.09-3.53-7.93-4.78-8.69-3.72-18.83-3.75-27.68-.04-2,.85-3.91,1.83-5.67,2.99-7.46.11-14.86,2.56-21.1,7.24-5.7,4.25-10.14,9.83-13.05,16.31-4.6-3.06-9.85-5.18-15.47-6.16-11.71-2.07-23.59,1.23-32.55,9-8.92,7.73-13.78,19.03-13.4,30.94l1.34,47.91c.15,5.74.27,11.48.42,17.3.15,6.09.3,12.22.49,18.11.2,10.8,4.52,20.64,12.1,27.88,7.04,6.81,15.66,10.23,24.66,10.03,5.55-.11,11.22-1.61,16.8-4.52,11.79-6.21,16.39-16.85,17.77-20.1.85-1.92,1.57-3.87,2.14-5.9.19.15.42.27.61.38l.08,1.65c.19,4.82.38,9.72.54,14.63.34,9.96.65,19.91.96,29.87l1.34,43.23c.11,2.11.19,5.29.99,8.97,3.53,17.45,18.54,29.44,36.11,29.09.54-.03,1.07-.03,1.61-.07,10.34-.69,19.95-5.47,26.88-13.36,3.64-4.1,6.43-8.77,8.31-13.78.89,2.6,2.07,5.12,3.48,7.5.15.19.27.3.35.49,4.94,7.81,12.06,13.4,20.48,16.15,3.94,1.31,7.93,1.92,11.71,1.85,9.15-.2,17.73-4.22,24.39-11.61,2.19-2.37,4.06-4.9,5.67-7.58,4.78,6.7,11.95,11.68,20.14,13.82,7.69,2.06,15.55,1.57,22.67-1.38,3.67.92,7.46,1.38,11.37,1.3l.76-.04,4.1-.14c2.48-.12,4.94-.15,7.15-.31,4.22-.23,8.42-.46,12.64-.69,4.17-.23,8.23-.46,12.4-.61,1.96-.08,3.91-.31,5.74-.73,5.25,2.99,11.23,4.87,17.66,5.32,3.67.31,6.93.27,9.83.24,1.04-.04,2.14,0,2.88,0l4.74.11c3.53.11,6.94.23,10.34.3,3.64.08,7.32.15,10.96.15,5.36.11,10.72.2,16.23.38,7.55.12,15.02-1.88,21.03-5.66.38-.2.76-.42,1.19-.69,2.33,1.26,4.74,2.41,7.27,3.33,6.52,2.41,13.1,3.56,19.72,3.41,7.89-.15,15.78-2.14,23.32-5.94,7.59-3.71,14.33-9.15,20.34-16.39,6.32-7.42,11.37-16.08,15.5-26.76,3.87-10.07,6.28-20.75,7.39-32.7.8-8.46.76-17.27-.15-26.2v-.11c-.31-2.53-.58-5.01-.96-7.39,1.15.31,2.34.51,3.44.65,3.57.58,7.05.8,10.49.73,13.02-.27,25.15-4.98,35.58-13.9,9.19-7.77,15.85-18,19.95-30.33,2.91-8.92,4.29-18.11,3.98-27.34Zm-250.08-87.53c.85-.58,1.84-1.07,2.84-1.38,2.75-.84,5.55-.92,8.46-.65,4.18.49,8.38.85,12.52,1.27,3.22.3,6.4.72,9.62,1.07,3.13.38,6.35.72,9.53,1.03,4.48.46,8.97,1,13.44,1.41,1.99.24,3.91.39,5.86.51,4.33.23,7.39,2.26,9.15,6.2.15.31.35.58.65,1.04.42-.42.8-.73,1.11-1.11,1.84-2.19,4.25-3.33,7.08-3.29,1.8,0,3.64.14,5.4.54,5.63,1.26,11.22,2.56,16.77,3.9,3.98.96,7.93,2,11.87,2.95,1.54.42,3.22.73,4.75,1.2,2.06.57,3.71,1.79,5.21,3.18,2.75,2.48,4.75,5.47,6.16,8.85,2.75,6.43,3.91,13.25,3.37,20.26-.38,5.21-1.54,10.19-4.1,14.77-1.19,2.11-2.6,4.02-4.52,5.56l-.69.58c-.69.69-.72,1.11,0,1.61,4.22,3.02,6.32,7.54,8.35,12.02,3.98,8.69,6.43,17.85,7.85,27.23.31,2.1.51,4.18.66,6.28.07,1.76-.35,3.41-1.11,4.94-2.07,4.18-7.08,4.56-10.03,1.76-1.8-1.72-2.84-3.79-2.92-6.39,0-3.95-.76-7.86-1.53-11.75-1.07-4.91-2.57-9.69-4.67-14.22-2.72-5.77-6.13-11.02-10.8-15.46-3.02-2.88-6.39-5.25-10.3-6.86-4.29-1.68-8.73-2.61-13.36-2.22-1.76.11-1.85.23-1.85,1.95-.07,8.54-.19,17.08-.23,25.58-.07,3.95-.03,7.86-.15,11.76-.07,2.48-.95,4.78-2.82,6.55-2.49,2.37-6.56,2.44-9.2.45-2.48-1.83-3.79-4.32-3.82-7.42,0-2.45.11-4.91.19-7.35.27-8.55.54-17.04.85-25.59.19-6.32.42-12.6.61-18.92.24-7.5.51-15.01.77-22.55.07-3.99.23-8.01.34-12.03,0-.54-.07-1.1-.11-2.06-.62.38-.96.49-1.19.72-2.23,2.27-4.91,3.1-7.93,2.76-3.83-.38-7.66-.96-11.48-1.42-2.38-.3-4.68-.61-7.05-.92-2.3-.34-4.25,1.15-4.36,3.45,0,.68-.15,1.41-.2,2.06-.07,6.55-.15,13.06-.23,19.53-.11,6.86-.2,13.64-.31,20.45-.15,7.93-.27,15.86-.45,23.78,0,3.25,0,6.46-.08,9.72-.04,2.64-.61,5.05-2.33,7.16-2.34,2.82-8.01,3.4-10.49.92-.69-.62-1.34-1.38-1.61-2.26-.38-1.11-.62-2.45-.58-3.68-.04-3.98.04-8,.08-11.99.03-7.73,0-15.46.03-23.21.04-10.83.11-21.59.2-32.43.04-4.05.11-8.11.15-12.18,0-2.26-.89-3.4-2.99-3.78-1.07-.24-2.19-.2-3.29-.27-2.88-.08-5.82-.2-8.7-.27-2.68-.12-5.16-.62-7.51-1.88-4.25-2.38-4.32-9-.88-11.45Zm-231.4,125.55c-2.64-.3-4.74-1.53-6.58-3.33-4.18-4.02-8.28-8.11-12.41-12.18-3.6-3.53-7.2-6.97-10.79-10.41-4.87-4.75-9.76-9.54-14.63-14.29-.46-.49-.96-1.03-1.49-1.49-.23-.3-.61-.45-1.23-.92-.07.92-.15,1.49-.15,2.07.27,8.69.54,17.34.77,26.04.19,6.7.41,13.47.57,20.29.08,3.71-.27,7.39-1.79,10.83-1.15,2.65-2.49,5.18-5.09,6.52-3.3,1.72-5.71,2.06-8.73-.89-2.34-2.18-3.37-4.98-3.44-8.07-.31-11.88-.58-23.74-.93-35.65-.23-9.92-.54-19.92-.8-29.91-.15-6.02-.34-11.99-.49-18-.27-7.77,6.36-12.44,12.87-11.3,2.1.38,4.06,1.23,5.74,2.76,4.06,3.63,8.08,7.31,12.1,10.95,6.24,5.67,12.53,11.33,18.8,17,2.33,2.1,4.63,4.18,6.93,6.28.34.31.76.54,1.38,1.03.07-.88.23-1.45.19-2.02-.23-9.92-.45-19.83-.65-29.75-.04-2.65-.15-5.33-.15-7.97.04-2.72.51-5.36,1.54-7.93.92-2.33,2.45-4.25,4.44-5.74,3.87-2.88,8.92-1.68,11.29,2.64.96,1.61,1.46,3.41,1.49,5.29.54,16.69,1.07,33.46,1.65,50.16.27,8.92.58,17.76.88,26.61.08,1.34.15,2.72-.14,4.06-1.15,4.78-6.16,7.96-11.11,7.31Zm78.35,55.91c-1.96,3.48-4.94,5.78-8.27,7.66-3.45,1.88-7.16,2.64-11.11,2.91-5.74.31-11.48.8-17.23,1.27-2.41.15-4.78.34-7.2.54-1.72.11-2.14.45-2.23,2.14-.11,3.44-.19,6.86-.15,10.23.04,8.54.15,17.07.15,25.58,0,4.29-1.14,8.23-4.05,11.48-2.03,2.3-4.53,3.75-7.66,3.98-4.33.27-7.39-2.64-8.15-6.46-.39-1.8-.39-3.64-.46-5.44-.42-13.02-.85-26.11-1.27-39.17-.34-10.95-.65-21.86-.99-32.77-.27-7.62-.62-15.24-.92-22.82-.27-6.93,2.03-12.71,7.46-17.07,1.23-1,2.72-1.69,4.06-2.53.38-.2.76-.39,1.41-.77-.69-.42-1.11-.72-1.61-1.03-2.57-1.57-4.9-3.41-6.08-6.36-.31-.68-.46-1.48-.54-2.29-.31-7.77-.58-15.55-.89-23.29-.31-7.24-.69-14.43-.96-21.63-.19-4.6-.34-9.24-.57-13.82-.2-4.94-.46-9.92-.73-14.86-.23-3.07.11-6.02,1.27-8.85.99-2.38,2.48-4.29,4.9-5.29,3.53-1.49,7.51-.42,9,3.6.45,1.15.69,2.41.69,3.64.45,8.58.84,17.15,1.23,25.69.38,8.77.84,17.58,1.22,26.31.08,1.84.15,3.68.24,5.56.11,2.87,1.95,5.12,4.67,5.97,1.38.46,2.72.15,3.98-.19,5.18-1.34,10.27-2.76,15.36-4.14,2.44-.68,4.82-1.37,7.27-2.03,4.06-1.14,6.94-5.9,6.82-9.34-.35-7.46-.58-15.01-.89-22.56-.27-6.58-.54-13.16-.85-19.79-.15-3.87-.34-7.73-.49-11.57-.07-2.87-.04-5.7,1.14-8.42,1.58-3.82,6.02-6.59,11.07-5.16,2.61.72,3.75,2.84,4.44,5.28.23.96.3,2.07.27,3.1.07,4.48,0,8.96.03,13.37.08,9.83.24,19.68.31,29.48.04,8.04.11,16.15.15,24.2,0,2.91.04,5.82-.61,8.69-1.31,6.05-4.22,11.1-9.31,14.74-1.76,1.27-3.82,1.92-5.94,2.38-1.37.3-2.79.45-4.25,1.3.69.27,1.11.58,1.65.65,3.26.88,6.21,2.26,8.58,4.71,1.45,1.57,2.75,3.29,3.91,5.09,3.56,5.43,5.9,11.33,7.31,17.65,1.19,5.29,1.8,10.54,1.57,15.86-.19,4.25-.8,8.46-1.84,12.64-1.11,4.25-2.79,8.19-4.94,11.98Zm79.49,58.9c-4.13,3.22-10.15,1.07-11.83-2.99-.61-1.54-1.23-3.14-1.61-4.71-1.5-5.94-2.91-11.87-4.33-17.85-1.61-6.43-3.18-12.9-4.78-19.37-.04-.2-.11-.38-.15-.58-.76-2.3-1.07-2.48-3.48-2.33-6.21.38-12.4.76-18.65,1.14-1.72.11-1.76.11-2.14,1.88-1.91,8.31-3.82,16.69-5.7,25.04-1.07,4.78-2.19,9.61-3.41,14.32-.76,3.19-2.18,6.13-4.44,8.58-2.14,2.41-3.78,2.99-6.46,2.11-2.34-.73-4.1-2.27-5.44-4.37-1.49-2.48-1.91-5.21-1.37-8.08.68-3.52,1.45-7.08,2.18-10.57.73-3.44,1.49-6.86,2.26-10.26,1.58-7.39,3.19-14.74,4.71-22.06,1.61-7.42,3.14-14.81,4.71-22.25,1.49-6.81,3.03-13.55,4.48-20.37,1.26-5.9,2.44-11.79,3.71-17.65,1.19-5.52,2.41-10.99,3.56-16.46.35-1.54.66-3.02.89-4.6.27-1.41.07-1.64-1.34-1.53-1.61.11-3.18.3-4.78.49-1.8.15-3.57.42-5.36.46-3.53.11-6.67-.89-9.11-3.48-1.65-1.69-2.49-3.75-2.54-6.13-.45-13.21-.84-26.42-1.22-39.67h.03c-.45-12.18-.8-24.31-1.22-36.53-.08-1.92-.31-3.91.11-5.82.65-2.87,1.88-5.43,3.98-7.42,1.84-1.85,4.13-2.8,6.66-3.19,7.59-1.03,15.09-2.03,22.67-3.1,4.56-.61,9.15-1.19,13.71-1.75,5.67-.77,11.3-1.58,17-2.27,2.14-.23,4.29.15,6.21,1.31,2.6,1.57,3.29,5.32,1.37,7.93-1.41,1.88-3.29,3.06-5.77,3.36-5.67.73-11.3,1.61-17.01,2.41-3.78.54-7.58,1.07-11.44,1.61-4.75.66-9.54,1.34-14.29,2-1.45.23-2.91.34-4.32.61-1.58.31-2.14.96-2.14,2.57-.08,2.99-.04,5.94.03,8.92.04,1.45.85,2.11,2.38,1.88,3.36-.38,6.7-.88,10.03-1.34,5.21-.69,10.41-1.34,15.62-2.03,5.78-.72,11.53-1.48,17.31-2.22,2.45-.31,4.71.31,6.7,1.68,2.53,1.76,3.57,5.13,2.49,8.01-1.54,3.94-4.41,6.16-8.51,6.81-4.22.61-8.42,1.03-12.68,1.61-4.13.49-8.27,1.03-12.4,1.57-4.25.54-8.54,1.07-12.82,1.61-1.54.2-3.14.46-4.67.76-1.42.27-2.45,1.85-2.54,3.61v4.63c.04,6.74.04,13.52.08,20.3l.04.92c.07,1.61.92,2.45,2.53,2.57.76.03,1.53-.04,2.26-.11,7.2-.73,14.43-1.46,21.67-2.23,4.56-.45,9.08-1.14,13.6-1.49,4.9-.34,9.57.35,13.09,4.25,2.22,2.45,3.33,5.33,3.33,8.62,0,6.52-3.25,10.96-8.61,14.13-.42.23-1,.34-1.46.38-3.13.31-6.32.61-9.41.92-1.65.15-3.33.23-4.98.42-1.61.11-1.76.42-1.42,1.99,1,4.48,2.07,8.93,3.1,13.33.85,3.33,1.61,6.66,2.37,9.95,2.07,8.7,4.14,17.39,6.13,26.04,1.49,6.39,2.95,12.79,4.44,19.19,1.45,6.09,2.91,12.18,4.36,18.27.96,4.18,1.88,8.31,2.88,12.48,1.14,4.74,2.33,9.41,3.4,14.16.73,3.18,1.34,6.35,1.88,9.57.77,4.29-.69,7.74-4.09,10.42Zm67.46-12.48c-1.19,4.13-3.56,7.42-7.24,9.61-1.37.85-2.79,1.23-4.43,1.3-8.35.42-16.74.93-25.05,1.34-3.71.2-7.42.27-11.13.46-5.9.23-10.07-2.57-12.75-7.66-2.14-4.06-2.49-8.35-.38-12.56,1.61-3.3,4.28-5.29,8.07-5.74,5.71-.62,11.53-.31,17.27-.38,1.61-.04,3.19-.04,4.79,0,4.47-.04,5.12-3.45,3.37-6.43-.8-1.34-1.65-2.61-2.54-3.91-3.18-4.71-6.31-9.38-9.49-14.09-4.52-6.78-9.07-13.56-13.59-20.33-3.26-4.82-6.67-9.65-9.8-14.56-1.27-1.99-2.23-4.13-3.22-6.28-2.61-5.9-3.87-12.02-3.79-18.45.08-6.81,1.76-13.25,5.63-19.03,2.3-3.41,5.21-6.21,8.85-8.15.49-.24,1-.62,1.76-1.07-.49-.31-.76-.58-1.07-.73-3.6-1.61-6.51-4.09-8.46-7.59-2.1-3.82-3.1-7.8-1.68-12.13,1.41-4.21,4.25-7.08,8.49-8.46.85-.23,1.8-.23,2.68-.23,6.97-.04,13.94-.08,20.91-.08,2.23,0,4.37.04,6.59.08,3.91,0,4.91-2.79,4.22-5.52-.54-2.37-1.76-4.33-3.48-6.05-3.33-3.33-6.74-6.59-10.11-9.88-5.28-5.05-10.53-10.14-15.81-15.21-2.87-2.84-5.97-5.43-8.73-8.38-3.52-3.71-5.86-8-5.36-13.36.31-3.19,1.11-6.02,2.99-8.55,1.07-1.45,2.14-2.87,3.48-4.13,1.99-1.83,4.36-2.75,6.86-3.6,1.72-.49,3.4-.54,5.21-.58,11.64-.27,23.25-.57,34.89-.84l4.94-.12c2.26,0,4.36.54,6.28,1.88,2.22,1.54,3.06,3.79,3.02,6.43.04,3.14-1.68,5.18-4.29,6.56-1.61.8-3.36,1.26-5.21,1.26-3.48.04-6.89.15-10.37.23-7.28.2-14.52.39-21.82.58-1.04.04-2.11.04-3.14.11-.96.04-1.68.46-2.03,1.31-.34.8-.23,1.64.46,2.37.76.8,1.5,1.65,2.26,2.37,4.63,4.78,9.23,9.42,13.9,14.13,4.37,4.56,8.8,9,13.25,13.56,2.07,2.1,4.18,4.29,6.28,6.39,2.99,2.95,4.82,6.59,5.98,10.61,1.68,5.93,1.99,11.98,1.19,18.03-.69,4.78-1.92,9.38-4.75,13.33-.76,1.07-1.68,1.99-2.56,2.95-.42.38-.85.76-1.38,1.34.8.45,1.38.8,1.99,1.11,3.95,2.06,6.43,5.24,7.73,9.49,1.42,4.47.42,8.61-1.19,12.75-1.3,3.25-3.37,5.93-6.32,7.8-1.57,1.07-3.29,1.65-5.25,1.61-9.83.08-19.6.11-29.48.15-3.22,0-4.47,1.72-3.29,4.78.46,1.27,1.14,2.45,1.88,3.57,4.52,6.74,9.07,13.44,13.6,20.17,4.9,7.24,9.83,14.47,14.74,21.79,3.52,5.28,7.24,10.53,10.68,15.93,3.1,4.78,5.13,10.03,5.94,15.73.61,4.44.3,8.73-.93,12.95Zm155.73-39.17c-.83,8.69-2.53,17.15-5.66,25.31-2.64,6.74-6.01,13.13-10.68,18.69-3.19,3.79-6.82,7.04-11.3,9.27-6.67,3.33-13.6,3.98-20.68,1.37-6.62-2.53-11.64-7.15-15.74-12.78-2.53-3.41-4.67-7.12-6.35-11.03-2.57-5.78-4.52-11.83-5.59-18.07-.77-4.02-1.15-8.11-1.72-12.13-.04-.51-.12-1-.24-1.85-.54.54-.92.77-1.14,1.04-2.76,3.52-6.32,5.51-10.76,5.9-1.11.11-2.3-.04-3.44-.08-5.98-.11-11.91-.19-17.89-.31-6.21-.14-12.37-.3-18.49-.45-.61,0-1.23-.04-1.83,0-1.11,0-1.34.15-1.3,1.3.14,3.33.34,6.7.49,10.07.07.96.34,1.14,1.53,1.23,2.61.15,5.22.27,7.86.34,5.13.24,10.26.46,15.46.69,6.16.31,12.37.65,18.62.8,11.22.23,18.37,10.27,17.27,20.14-.77,6.51-4.02,11.44-9.58,14.81-1.72,1.07-3.64,1.65-5.86,1.61-9.07-.27-18.15-.34-27.18-.54-4.98-.07-9.92-.27-14.9-.42-3.71-.03-7.55.15-11.26-.11-7.08-.54-12.02-5.43-12.06-12.48.07-7.15-.15-14.32-.23-21.47l-.62-29.95c-.31-17-.58-33.96-.8-50.93-.11-4.25-.34-8.42-.11-12.64.15-3.9,1.5-7.42,4.98-9.76,1.3-.88,2.75-1.19,4.25-1.07,7.05.38,14.05.77,21.02,1.11,5.21.27,10.34.61,15.47.88,3.06.15,6.12.31,9.15.46,2.06.11,4.13.11,6.16.34,12.21,1.73,17.8,12.99,13.52,22.94-2.49,5.94-7.21,9.35-13.18,11.1-1.99.62-4.02.35-5.97.2-6.94-.42-13.82-.96-20.72-1.41-4.09-.31-8.2-.58-12.33-.89-.19,0-.34-.04-.61-.04-.89,0-1.11.15-1.19,1.11-.08.89-.12,1.8-.12,2.68-.11,4.02-.23,8-.34,12.02l.04,1.85c.03,1.53.19,1.72,1.84,1.88,1.27.07,2.61.11,3.91.11,6.74.31,13.52.54,20.26.8,5.21.23,10.45.49,15.62.65,3.1.07,5.82,1.07,8.31,2.72,2.14,1.41,4.02,3.18,5.36,5.36.27.42.62.84.85,1.23.15,0,.27,0,.42-.08.11-.49.27-.99.3-1.57.85-6.78,2.45-13.44,4.64-19.99,1.54-4.48,3.56-8.69,5.9-12.79,2.37-4.16,5.21-7.85,8.58-11.18,3.67-3.6,7.97-6.47,12.98-7.93,5.47-1.57,10.99-1.45,16.35.73,5.56,2.29,10.07,6.08,13.82,10.75,4.94,6.01,8.2,12.91,10.65,20.22,2.22,6.36,3.44,12.99,4.13,19.65.69,6.86.8,13.74.14,20.6Zm69.62-82.67c-2.3,6.86-5.81,12.91-11.41,17.69-6.77,5.78-14.59,8.11-23.43,6.74-6.32-.96-11.83-3.72-16.89-7.7-5.63-4.52-9.96-10.1-13.29-16.46-1.99-3.79-3.48-7.81-4.67-11.99-2.06-7.31-2.64-14.77-1.95-22.36.54-5.7,2.06-11.18,4.52-16.42,1.8-3.83,4.13-7.32,7.12-10.3,5.9-5.98,13.05-9.24,21.63-9.04,6.56.15,12.33,2.26,17.73,5.82,7.35,4.86,12.75,11.48,16.66,19.33,4.17,8.35,6.5,17.2,6.55,26.77.23,6.01-.61,12.02-2.57,17.92Z"/>
  <path class="cls-1" d="m564.93,139.09c-.04-9.58-2.37-18.42-6.55-26.77-3.91-7.85-9.31-14.47-16.66-19.33-5.4-3.57-11.17-5.67-17.73-5.82-8.58-.2-15.73,3.06-21.63,9.04-2.99,2.98-5.32,6.46-7.12,10.3-2.45,5.25-3.98,10.72-4.52,16.42-.69,7.59-.11,15.05,1.95,22.36,1.19,4.18,2.68,8.2,4.67,11.99,3.33,6.36,7.66,11.95,13.29,16.46,5.05,3.98,10.57,6.74,16.89,7.7,8.85,1.37,16.66-.96,23.43-6.74,5.6-4.78,9.11-10.83,11.41-17.69,1.96-5.9,2.79-11.91,2.57-17.92Zm-20.37,13.74c-1.8,3.6-4.4,6.59-7.93,8.58-2.95,1.65-6.08,2.3-9.42,1.8-4.59-.65-8.31-2.99-11.6-6.16-3.26-3.22-5.56-7.12-7.28-11.37-2.87-6.94-3.67-14.06-2.79-21.37.61-4.98,2.19-9.58,5.09-13.67,2.34-3.33,5.32-5.86,9.27-7.05,2.75-.84,5.56-.84,8.35-.11,5.47,1.54,9.49,5.13,12.78,9.69,3.06,4.22,5.02,8.96,6.09,14.05.58,2.84.92,5.71,1.38,8.58-.2,5.98-1.23,11.72-3.95,17.04Z"/>
  <path class="cls-1" d="m483.78,159.69c-1.41-9.38-3.87-18.54-7.85-27.23-2.03-4.48-4.13-9-8.35-12.02-.72-.49-.69-.92,0-1.61l.69-.58c1.92-1.54,3.33-3.44,4.52-5.56,2.57-4.59,3.72-9.57,4.1-14.77.54-7.01-.62-13.82-3.37-20.26-1.41-3.37-3.41-6.36-6.16-8.85-1.5-1.38-3.14-2.61-5.21-3.18-1.54-.46-3.22-.77-4.75-1.2-3.94-.95-7.89-1.99-11.87-2.95-5.56-1.34-11.14-2.64-16.77-3.9-1.76-.39-3.6-.54-5.4-.54-2.84-.04-5.25,1.1-7.08,3.29-.31.38-.69.69-1.11,1.11-.3-.46-.49-.73-.65-1.04-1.76-3.94-4.82-5.97-9.15-6.2-1.95-.11-3.87-.27-5.86-.51-4.47-.41-8.96-.95-13.44-1.41-3.18-.31-6.39-.65-9.53-1.03-3.22-.35-6.4-.77-9.62-1.07-4.13-.42-8.34-.77-12.52-1.27-2.92-.27-5.71-.19-8.46.65-1,.31-1.99.8-2.84,1.38-3.44,2.45-3.37,9.07.88,11.45,2.34,1.26,4.82,1.75,7.51,1.88,2.88.07,5.82.19,8.7.27,1.1.07,2.22.03,3.29.27,2.1.38,2.99,1.53,2.99,3.78-.04,4.06-.11,8.12-.15,12.18-.08,10.85-.15,21.6-.2,32.43-.03,7.74,0,15.47-.03,23.21-.04,3.99-.12,8.01-.08,11.99-.04,1.23.2,2.57.58,3.68.27.88.92,1.64,1.61,2.26,2.48,2.48,8.15,1.91,10.49-.92,1.72-2.11,2.29-4.53,2.33-7.16.08-3.26.08-6.47.08-9.72.19-7.93.3-15.86.45-23.78.11-6.81.2-13.6.31-20.45.07-6.46.15-12.98.23-19.53.04-.65.2-1.38.2-2.06.11-2.3,2.06-3.79,4.36-3.45,2.37.31,4.67.62,7.05.92,3.82.46,7.65,1.04,11.48,1.42,3.02.34,5.7-.49,7.93-2.76.23-.23.57-.34,1.19-.72.04.96.11,1.53.11,2.06-.11,4.02-.27,8.04-.34,12.03-.27,7.54-.54,15.04-.77,22.55-.19,6.32-.42,12.6-.61,18.92-.31,8.55-.58,17.04-.85,25.59-.07,2.44-.19,4.9-.19,7.35.03,3.1,1.34,5.59,3.82,7.42,2.64,1.99,6.7,1.92,9.2-.45,1.88-1.76,2.75-4.06,2.82-6.55.12-3.91.08-7.81.15-11.76.04-8.49.15-17.04.23-25.58,0-1.72.08-1.83,1.85-1.95,4.63-.39,9.07.54,13.36,2.22,3.91,1.61,7.28,3.98,10.3,6.86,4.67,4.44,8.08,9.69,10.8,15.46,2.1,4.53,3.6,9.31,4.67,14.22.76,3.9,1.53,7.8,1.53,11.75.08,2.6,1.11,4.67,2.92,6.39,2.95,2.79,7.96,2.41,10.03-1.76.76-1.53,1.19-3.18,1.11-4.94-.15-2.1-.35-4.18-.66-6.28Zm-33.84-58.66c-3.41-.69-6.86-1.31-10.3-2-3.33-.65-6.59-1.34-9.89-2.02-1.53-.27-1.57-.35-1.45-1.85.38-6.55.8-13.09,1.31-19.64.03-1.11.34-1.34,1.57-1.11,2.3.54,4.63,1.03,6.9,1.57,3.09.69,6.15,1.34,9.23,2.03,4.82,1.15,8.85,3.48,11.41,7.86,1.07,1.83,1.68,3.75,1.64,5.86.69,4.33-5.12,10.41-10.41,9.31Z"/>
  <path class="cls-1" d="m122.82,169.23c-1.15,4.78-6.16,7.96-11.11,7.31-2.64-.3-4.74-1.53-6.58-3.33-4.18-4.02-8.28-8.11-12.41-12.18-3.6-3.53-7.2-6.97-10.79-10.41-4.87-4.75-9.76-9.54-14.63-14.29-.46-.49-.96-1.03-1.49-1.49-.23-.3-.61-.45-1.23-.92-.07.92-.15,1.49-.15,2.07.27,8.69.54,17.34.77,26.04.19,6.7.41,13.47.57,20.29.08,3.71-.27,7.39-1.79,10.83-1.15,2.65-2.49,5.18-5.09,6.52-3.3,1.72-5.71,2.06-8.73-.89-2.34-2.18-3.37-4.98-3.44-8.07-.31-11.88-.58-23.74-.93-35.65-.23-9.92-.54-19.92-.8-29.91-.15-6.02-.34-11.99-.49-18-.27-7.77,6.36-12.44,12.87-11.3,2.1.38,4.06,1.23,5.74,2.76,4.06,3.63,8.08,7.31,12.1,10.95,6.24,5.67,12.53,11.33,18.8,17,2.33,2.1,4.63,4.18,6.93,6.28.34.31.76.54,1.38,1.03.07-.88.23-1.45.19-2.02-.23-9.92-.45-19.83-.65-29.75-.04-2.65-.15-5.33-.15-7.97.04-2.72.51-5.36,1.54-7.93.92-2.33,2.45-4.25,4.44-5.74,3.87-2.88,8.92-1.68,11.29,2.64.96,1.61,1.46,3.41,1.49,5.29.54,16.69,1.07,33.46,1.65,50.16.27,8.92.58,17.76.88,26.61.08,1.34.15,2.72-.14,4.06Z"/>
  <path class="cls-1" d="m195.26,191.97c-1.41-6.32-3.75-12.22-7.31-17.65-1.15-1.8-2.45-3.53-3.91-5.09-2.37-2.45-5.32-3.84-8.58-4.71-.54-.07-.96-.38-1.65-.65,1.45-.85,2.88-1,4.25-1.3,2.11-.46,4.18-1.11,5.94-2.38,5.09-3.64,8-8.69,9.31-14.74.65-2.87.61-5.78.61-8.69-.04-8.04-.11-16.15-.15-24.2-.07-9.8-.23-19.65-.31-29.48-.03-4.41.04-8.89-.03-13.37.03-1.03-.04-2.14-.27-3.1-.69-2.44-1.84-4.56-4.44-5.28-5.05-1.42-9.49,1.34-11.07,5.16-1.19,2.72-1.22,5.56-1.14,8.42.15,3.83.34,7.7.49,11.57.31,6.63.58,13.22.85,19.79.31,7.55.54,15.09.89,22.56.11,3.44-2.76,8.2-6.82,9.34-2.44.66-4.82,1.35-7.27,2.03-5.09,1.38-10.19,2.8-15.36,4.14-1.26.34-2.6.65-3.98.19-2.72-.85-4.56-3.1-4.67-5.97-.08-1.88-.15-3.72-.24-5.56-.38-8.73-.83-17.54-1.22-26.31-.39-8.54-.77-17.11-1.23-25.69,0-1.23-.24-2.48-.69-3.64-1.49-4.02-5.47-5.09-9-3.6-2.41,1-3.91,2.91-4.9,5.29-1.15,2.82-1.49,5.77-1.27,8.85.27,4.94.54,9.92.73,14.86.23,4.59.38,9.23.57,13.82.27,7.2.65,14.39.96,21.63.31,7.74.58,15.52.89,23.29.07.8.23,1.61.54,2.29,1.19,2.95,3.52,4.79,6.08,6.36.49.31.92.61,1.61,1.03-.65.38-1.03.58-1.41.77-1.34.84-2.84,1.53-4.06,2.53-5.43,4.36-7.73,10.14-7.46,17.07.3,7.59.65,15.21.92,22.82.34,10.92.65,21.82.99,32.77.42,13.06.85,26.15,1.27,39.17.07,1.8.07,3.64.46,5.44.76,3.82,3.82,6.73,8.15,6.46,3.13-.23,5.63-1.68,7.66-3.98,2.91-3.26,4.05-7.2,4.05-11.48,0-8.51-.11-17.04-.15-25.58-.03-3.37.04-6.78.15-10.23.08-1.69.51-2.03,2.23-2.14,2.41-.2,4.78-.38,7.2-.54,5.74-.46,11.48-.96,17.23-1.27,3.95-.27,7.66-1.03,11.11-2.91,3.33-1.88,6.31-4.18,8.27-7.66,2.14-3.79,3.82-7.73,4.94-11.98,1.03-4.18,1.65-8.39,1.84-12.64.24-5.32-.38-10.57-1.57-15.86Zm-18.34,21.56c-1.14,2.79-3.1,4.98-6.09,6.09-.34.15-.72.27-1.1.31-6.4.88-12.72,1.72-19.07,2.6-1.11.15-2.26.42-3.44.58-1.69.27-1.96.11-2.03-1.54-.11-3.06-.24-6.12-.38-9.19l-.04-2.26h-.23l-.24-11.26c-.03-1.31-.03-1.45,1.31-1.69,3.02-.49,6.01-1.03,9.03-1.53,3.3-.51,6.55-1,9.8-1.54,1.65-.23,3.26-.49,4.9-.04,2.76.69,4.71,2.45,6.21,4.68,3.06,4.63,3.57,9.65,1.38,14.77Z"/>
  <path class="cls-1" d="m273.64,280.91c-.54-3.22-1.14-6.39-1.88-9.57-1.07-4.75-2.26-9.42-3.4-14.16-1-4.18-1.92-8.31-2.88-12.48-1.45-6.09-2.91-12.18-4.36-18.27-1.49-6.39-2.95-12.79-4.44-19.19-1.99-8.65-4.06-17.34-6.13-26.04-.76-3.29-1.53-6.62-2.37-9.95-1.03-4.4-2.1-8.85-3.1-13.33-.34-1.57-.19-1.88,1.42-1.99,1.65-.2,3.33-.27,4.98-.42,3.09-.31,6.28-.61,9.41-.92.46-.04,1.04-.15,1.46-.38,5.36-3.18,8.61-7.62,8.61-14.13,0-3.29-1.11-6.16-3.33-8.62-3.53-3.9-8.2-4.59-13.09-4.25-4.52.35-9.04,1.04-13.6,1.49-7.24.76-14.47,1.49-21.67,2.23-.73.07-1.49.14-2.26.11-1.61-.11-2.45-.96-2.53-2.57l-.04-.92c-.04-6.78-.04-13.56-.08-20.3v-4.63c.08-1.76,1.11-3.34,2.54-3.61,1.53-.3,3.13-.57,4.67-.76,4.29-.54,8.58-1.07,12.82-1.61,4.13-.54,8.27-1.07,12.4-1.57,4.26-.58,8.46-1,12.68-1.61,4.09-.65,6.97-2.88,8.51-6.81,1.07-2.88.03-6.25-2.49-8.01-1.99-1.37-4.25-1.99-6.7-1.68-5.78.73-11.53,1.49-17.31,2.22-5.21.69-10.41,1.34-15.62,2.03-3.33.46-6.67.96-10.03,1.34-1.54.24-2.34-.42-2.38-1.88-.07-2.98-.11-5.93-.03-8.92,0-1.61.57-2.26,2.14-2.57,1.41-.27,2.87-.38,4.32-.61,4.75-.66,9.54-1.34,14.29-2,3.87-.54,7.66-1.07,11.44-1.61,5.71-.8,11.34-1.68,17.01-2.41,2.48-.3,4.36-1.48,5.77-3.36,1.92-2.61,1.23-6.36-1.37-7.93-1.92-1.15-4.06-1.54-6.21-1.31-5.7.69-11.33,1.49-17,2.27-4.56.57-9.15,1.14-13.71,1.75-7.58,1.07-15.08,2.07-22.67,3.1-2.53.38-4.82,1.34-6.66,3.19-2.1,1.99-3.33,4.56-3.98,7.42-.42,1.92-.2,3.91-.11,5.82.41,12.22.76,24.35,1.22,36.53h-.03c.38,13.25.76,26.46,1.22,39.67.04,2.38.89,4.44,2.54,6.13,2.44,2.6,5.59,3.6,9.11,3.48,1.79-.04,3.56-.31,5.36-.46,1.61-.2,3.18-.38,4.78-.49,1.41-.11,1.61.11,1.34,1.53-.23,1.58-.54,3.06-.89,4.6-1.14,5.47-2.37,10.95-3.56,16.46-1.27,5.86-2.45,11.75-3.71,17.65-1.45,6.82-2.99,13.56-4.48,20.37-1.57,7.43-3.1,14.82-4.71,22.25-1.53,7.32-3.13,14.67-4.71,22.06-.76,3.4-1.53,6.81-2.26,10.26-.72,3.48-1.49,7.05-2.18,10.57-.54,2.88-.12,5.6,1.37,8.08,1.34,2.1,3.1,3.64,5.44,4.37,2.68.88,4.32.3,6.46-2.11,2.27-2.44,3.68-5.39,4.44-8.58,1.23-4.71,2.34-9.54,3.41-14.32,1.88-8.35,3.79-16.73,5.7-25.04.38-1.76.42-1.76,2.14-1.88,6.25-.38,12.44-.76,18.65-1.14,2.41-.15,2.72.03,3.48,2.33.04.2.11.38.15.58,1.61,6.47,3.18,12.94,4.78,19.37,1.42,5.98,2.84,11.91,4.33,17.85.38,1.57,1,3.18,1.61,4.71,1.68,4.06,7.7,6.21,11.83,2.99,3.4-2.68,4.87-6.13,4.09-10.42Zm-32.59-60.65c-.69.04-1.37.11-2.06.15-3.37.34-6.7.76-10.03,1.11-.65.07-1.27.03-2.03.03-.31-1.23.03-2.22.23-3.25.96-5.48,1.99-11.03,3.06-16.55.54-2.99,1.15-5.97,1.76-8.92.15-.54.31-1.11.61-1.54.58-.92,1.54-.92,2.11-.04.34.54.58,1.15.8,1.76.65,2.45,1.26,4.82,1.91,7.28,1.2,4.33,2.34,8.65,3.53,13.02.46,1.72.89,3.52,1.23,5.25.27,1.1,0,1.48-1.11,1.68Z"/>
  <path class="cls-1" d="m337.94,265.9c.61,4.44.3,8.73-.93,12.95-1.19,4.13-3.56,7.42-7.24,9.61-1.37.85-2.79,1.23-4.43,1.3-8.35.42-16.74.93-25.05,1.34-3.71.2-7.42.27-11.13.46-5.9.23-10.07-2.57-12.75-7.66-2.14-4.06-2.49-8.35-.38-12.56,1.61-3.3,4.28-5.29,8.07-5.74,5.71-.62,11.53-.31,17.27-.38,1.61-.04,3.19-.04,4.79,0,4.47-.04,5.12-3.45,3.37-6.43-.8-1.34-1.65-2.61-2.54-3.91-3.18-4.71-6.31-9.38-9.49-14.09-4.52-6.78-9.07-13.56-13.59-20.33-3.26-4.82-6.67-9.65-9.8-14.56-1.27-1.99-2.23-4.13-3.22-6.28-2.61-5.9-3.87-12.02-3.79-18.45.08-6.81,1.76-13.25,5.63-19.03,2.3-3.41,5.21-6.21,8.85-8.15.49-.24,1-.62,1.76-1.07-.49-.31-.76-.58-1.07-.73-3.6-1.61-6.51-4.09-8.46-7.59-2.1-3.82-3.1-7.8-1.68-12.13,1.41-4.21,4.25-7.08,8.49-8.46.85-.23,1.8-.23,2.68-.23,6.97-.04,13.94-.08,20.91-.08,2.23,0,4.37.04,6.59.08,3.91,0,4.91-2.79,4.22-5.52-.54-2.37-1.76-4.33-3.48-6.05-3.33-3.33-6.74-6.59-10.11-9.88-5.28-5.05-10.53-10.14-15.81-15.21-2.87-2.84-5.97-5.43-8.73-8.38-3.52-3.71-5.86-8-5.36-13.36.31-3.19,1.11-6.02,2.99-8.55,1.07-1.45,2.14-2.87,3.48-4.13,1.99-1.83,4.36-2.75,6.86-3.6,1.72-.49,3.4-.54,5.21-.58,11.64-.27,23.25-.57,34.89-.84l4.94-.12c2.26,0,4.36.54,6.28,1.88,2.22,1.54,3.06,3.79,3.02,6.43.04,3.14-1.68,5.18-4.29,6.56-1.61.8-3.36,1.26-5.21,1.26-3.48.04-6.89.15-10.37.23-7.28.2-14.52.39-21.82.58-1.04.04-2.11.04-3.14.11-.96.04-1.68.46-2.03,1.31-.34.8-.23,1.64.46,2.37.76.8,1.5,1.65,2.26,2.37,4.63,4.78,9.23,9.42,13.9,14.13,4.37,4.56,8.8,9,13.25,13.56,2.07,2.1,4.18,4.29,6.28,6.39,2.99,2.95,4.82,6.59,5.98,10.61,1.68,5.93,1.99,11.98,1.19,18.03-.69,4.78-1.92,9.38-4.75,13.33-.76,1.07-1.68,1.99-2.56,2.95-.42.38-.85.76-1.38,1.34.8.45,1.38.8,1.99,1.11,3.95,2.06,6.43,5.24,7.73,9.49,1.42,4.47.42,8.61-1.19,12.75-1.3,3.25-3.37,5.93-6.32,7.8-1.57,1.07-3.29,1.65-5.25,1.61-9.83.08-19.6.11-29.48.15-3.22,0-4.47,1.72-3.29,4.78.46,1.27,1.14,2.45,1.88,3.57,4.52,6.74,9.07,13.44,13.6,20.17,4.9,7.24,9.83,14.47,14.74,21.79,3.52,5.28,7.24,10.53,10.68,15.93,3.1,4.78,5.13,10.03,5.94,15.73Z"/>
  <path class="cls-1" d="m492.6,219.08c-.69-6.66-1.92-13.29-4.13-19.65-2.45-7.31-5.71-14.21-10.65-20.22-3.75-4.67-8.27-8.46-13.82-10.75-5.36-2.19-10.88-2.3-16.35-.73-5.01,1.45-9.31,4.33-12.98,7.93-3.37,3.33-6.21,7.01-8.58,11.18-2.34,4.1-4.36,8.31-5.9,12.79-2.19,6.55-3.79,13.21-4.64,19.99-.03.58-.19,1.07-.3,1.57-.15.08-.27.08-.42.08-.23-.39-.58-.8-.85-1.23-1.34-2.19-3.22-3.95-5.36-5.36-2.48-1.65-5.21-2.65-8.31-2.72-5.16-.15-10.41-.42-15.62-.65-6.74-.27-13.52-.49-20.26-.8-1.3,0-2.64-.04-3.91-.11-1.65-.15-1.8-.35-1.84-1.88l-.04-1.85c.11-4.02.23-8,.34-12.02,0-.88.04-1.79.12-2.68.07-.96.3-1.11,1.19-1.11.27,0,.42.04.61.04,4.13.31,8.24.58,12.33.89,6.9.45,13.78.99,20.72,1.41,1.95.15,3.98.42,5.97-.2,5.97-1.75,10.68-5.16,13.18-11.1,4.29-9.95-1.31-21.21-13.52-22.94-2.03-.23-4.1-.23-6.16-.34-3.03-.15-6.09-.31-9.15-.46-5.13-.27-10.27-.61-15.47-.88-6.97-.34-13.97-.73-21.02-1.11-1.5-.11-2.95.2-4.25,1.07-3.48,2.34-4.82,5.87-4.98,9.76-.23,4.22,0,8.39.11,12.64.23,16.97.49,33.93.8,50.93l.62,29.95c.07,7.15.3,14.32.23,21.47.04,7.05,4.98,11.95,12.06,12.48,3.71.27,7.55.08,11.26.11,4.98.15,9.92.35,14.9.42,9.03.2,18.11.27,27.18.54,2.22.04,4.13-.54,5.86-1.61,5.56-3.37,8.8-8.31,9.58-14.81,1.1-9.88-6.05-19.92-17.27-20.14-6.25-.15-12.45-.49-18.62-.8-5.21-.23-10.33-.45-15.46-.69-2.64-.07-5.25-.19-7.86-.34-1.19-.08-1.45-.27-1.53-1.23-.15-3.37-.35-6.74-.49-10.07-.04-1.14.19-1.3,1.3-1.3.61-.04,1.23,0,1.83,0,6.12.15,12.29.31,18.49.45,5.98.12,11.91.2,17.89.31,1.14.04,2.33.2,3.44.08,4.44-.39,8-2.38,10.76-5.9.23-.27.61-.51,1.14-1.04.11.85.2,1.34.24,1.85.57,4.02.95,8.11,1.72,12.13,1.07,6.24,3.02,12.29,5.59,18.07,1.68,3.91,3.82,7.62,6.35,11.03,4.1,5.63,9.12,10.26,15.74,12.78,7.08,2.61,14.01,1.96,20.68-1.37,4.47-2.23,8.11-5.47,11.3-9.27,4.67-5.56,8.04-11.95,10.68-18.69,3.13-8.15,4.82-16.62,5.66-25.31.66-6.86.55-13.74-.14-20.6Zm-20.83,20.6c-1.07,6.32-2.72,12.53-5.94,18.15-1.53,2.68-3.13,5.28-5.55,7.24-1.07.88-2.23,1.72-3.44,2.37-3.72,1.99-7.32,1.54-10.76-.8-2.84-1.99-4.67-4.82-6.21-7.81-1.79-3.29-2.87-6.81-3.67-10.45-1-4.32-1.42-8.69-1.46-11.82-.19-8.31.62-15.21,2.61-21.95,1.65-5.59,3.79-10.95,7.58-15.5,1.58-1.92,3.34-3.6,5.56-4.71,3.18-1.61,6.28-1.72,9.49-.04,3.44,1.8,5.59,4.75,7.35,8.08,2.76,5.02,4.13,10.49,4.87,16.16.88,7.04.8,14.08-.42,21.09Z"/>
  <path d="m176.92,213.52c-1.14,2.79-3.1,4.98-6.09,6.09-.34.15-.72.27-1.1.31-6.4.88-12.72,1.72-19.07,2.6-1.11.15-2.26.42-3.44.58-1.69.27-1.96.11-2.03-1.54-.11-3.06-.24-6.12-.38-9.19l-.04-2.26h-.23l-.24-11.26c-.03-1.31-.03-1.45,1.31-1.69,3.02-.49,6.01-1.03,9.03-1.53,3.3-.51,6.55-1,9.8-1.54,1.65-.23,3.26-.49,4.9-.04,2.76.69,4.71,2.45,6.21,4.68,3.06,4.63,3.57,9.65,1.38,14.77Z"/>
  <path d="m241.06,220.27c-.69.04-1.37.11-2.06.15-3.37.34-6.7.76-10.03,1.11-.65.07-1.27.03-2.03.03-.31-1.23.03-2.22.23-3.25.96-5.48,1.99-11.03,3.06-16.55.54-2.99,1.15-5.97,1.76-8.92.15-.54.31-1.11.61-1.54.58-.92,1.54-.92,2.11-.04.34.54.58,1.15.8,1.76.65,2.45,1.26,4.82,1.91,7.28,1.2,4.33,2.34,8.65,3.53,13.02.46,1.72.89,3.52,1.23,5.25.27,1.1,0,1.48-1.11,1.68Z"/>
  <path d="m449.94,101.03c-3.41-.69-6.86-1.31-10.3-2-3.33-.65-6.59-1.34-9.89-2.02-1.53-.27-1.57-.35-1.45-1.85.38-6.55.8-13.09,1.31-19.64.03-1.11.34-1.34,1.57-1.11,2.3.54,4.63,1.03,6.9,1.57,3.09.69,6.15,1.34,9.23,2.03,4.82,1.15,8.85,3.48,11.41,7.86,1.07,1.83,1.68,3.75,1.64,5.86.69,4.33-5.12,10.41-10.41,9.31Z"/>
  <path d="m471.76,239.68c-1.07,6.32-2.72,12.53-5.94,18.15-1.53,2.68-3.13,5.28-5.55,7.24-1.07.88-2.23,1.72-3.44,2.37-3.72,1.99-7.32,1.54-10.76-.8-2.84-1.99-4.67-4.82-6.21-7.81-1.79-3.29-2.87-6.81-3.67-10.45-1-4.32-1.42-8.69-1.46-11.82-.19-8.31.62-15.21,2.61-21.95,1.65-5.59,3.79-10.95,7.58-15.5,1.58-1.92,3.34-3.6,5.56-4.71,3.18-1.61,6.28-1.72,9.49-.04,3.44,1.8,5.59,4.75,7.35,8.08,2.76,5.02,4.13,10.49,4.87,16.16.88,7.04.8,14.08-.42,21.09Z"/>
  <path d="m548.51,135.79c-.2,5.98-1.23,11.72-3.95,17.04-1.8,3.6-4.4,6.59-7.93,8.58-2.95,1.65-6.08,2.3-9.42,1.8-4.59-.65-8.31-2.99-11.6-6.16-3.26-3.22-5.56-7.12-7.28-11.37-2.87-6.94-3.67-14.06-2.79-21.37.61-4.98,2.19-9.58,5.09-13.67,2.34-3.33,5.32-5.86,9.27-7.05,2.75-.84,5.56-.84,8.35-.11,5.47,1.54,9.49,5.13,12.78,9.69,3.06,4.22,5.02,8.96,6.09,14.05.58,2.84.92,5.71,1.38,8.58Z"/>
</svg>